<?xml version="1.0" encoding="utf-8"?>
<!-- Generator: Adobe Illustrator 19.2.0, SVG Export Plug-In . SVG Version: 6.00 Build 0)  -->
<svg version="1.1" id="Capa_1" xmlns="http://www.w3.org/2000/svg" xmlns:xlink="http://www.w3.org/1999/xlink" x="0px" y="0px"
	 viewBox="0 0 64 64" style="enable-background:new 0 0 64 64;" xml:space="preserve">
<style type="text/css">
	.st0{fill:#006DF0;}
	.st1{fill:none;stroke:#2C7C43;stroke-width:3;stroke-miterlimit:10;}
	.st2{stroke:#3B3588;stroke-width:3;stroke-miterlimit:10;}
</style>
<g>
	<path class="st0" d="M61.5,45.6H15.3V6.9c0-1.4-1.1-2.5-2.5-2.5s-2.5,1.1-2.5,2.5v38.8H2.5c-1.4,0-2.5,1.1-2.5,2.5s1.1,2.5,2.5,2.5
		h7.8v6.5c0,1.4,1.1,2.5,2.5,2.5s2.5-1.1,2.5-2.5v-6.5h46.2c1.4,0,2.5-1.1,2.5-2.5S62.9,45.6,61.5,45.6z"/>
</g>
<path class="st1" d="M5.7,0c0,24.7,26.1,44.7,58.3,44.7"/>
<line class="st2" x1="-1" y1="55.6" x2="64.7" y2="7"/>
</svg>
