<?xml version="1.0" encoding="utf-8"?>

<!-- Generator: Adobe Illustrator 16.0.0, SVG Export Plug-In . SVG Version: 6.00 Build 0)  -->
<!DOCTYPE svg PUBLIC "-//W3C//DTD SVG 1.1//EN" "http://www.w3.org/Graphics/SVG/1.1/DTD/svg11.dtd">
<svg version="1.1" id="Capa_1" xmlns="http://www.w3.org/2000/svg" xmlns:xlink="http://www.w3.org/1999/xlink" x="0px" y="0px"
	 width="64px" height="64px" viewBox="0 0 64 64" enable-background="new 0 0 64 64" xml:space="preserve">
<g>
	<path fill="#006DF0" d="M61.5,45.637H15.333V6.861c0-1.38-1.12-2.5-2.5-2.5c-1.381,0-2.5,1.12-2.5,2.5v38.776H2.5
		c-1.381,0-2.5,1.119-2.5,2.5s1.119,2.5,2.5,2.5h7.833v6.502c0,1.381,1.119,2.5,2.5,2.5c1.38,0,2.5-1.119,2.5-2.5v-6.502H61.5
		c1.381,0,2.5-1.119,2.5-2.5S62.881,45.637,61.5,45.637z"/>
</g>
<path fill="#006DF0" d="M23.159,31.905c-5.393,0-5.393,8.334,0,8.334C28.552,40.239,28.552,31.905,23.159,31.905z"/>
<path fill="#006DF0" d="M39.196,36.072c-5.394,0-5.394,8.334,0,8.334C44.589,44.406,44.589,36.072,39.196,36.072z"/>
<path fill="#006DF0" d="M47.285,6.363c-5.394,0-5.394,8.334,0,8.334C52.678,14.697,52.678,6.363,47.285,6.363z"/>
<path fill="#006DF0" d="M51.328,24.114c-5.394,0-5.394,8.334,0,8.334C56.721,32.448,56.721,24.114,51.328,24.114z"/>
<path fill="#006DF0" d="M28.951,14.697c-5.394,0-5.394,8.334,0,8.334C34.344,23.031,34.344,14.697,28.951,14.697z"/>
<line fill="#680078" stroke="#670080" stroke-width="4" stroke-miterlimit="10" x1="-1.5" y1="45.125" x2="67.5" y2="8.75"/>
</svg>
