<?xml version="1.0" encoding="utf-8"?>
<!-- Generator: Adobe Illustrator 16.0.0, SVG Export Plug-In . SVG Version: 6.00 Build 0)  -->
<!DOCTYPE svg PUBLIC "-//W3C//DTD SVG 1.1//EN" "http://www.w3.org/Graphics/SVG/1.1/DTD/svg11.dtd">
<svg version="1.1" id="Capa_1" xmlns="http://www.w3.org/2000/svg" xmlns:xlink="http://www.w3.org/1999/xlink" x="0px" y="0px"
	 width="85px" height="85px" viewBox="34 -10.38 85 85" enable-background="new 34 -10.38 85 85" xml:space="preserve">
<g>
	<g>
		<polygon fill="#006DF0" points="111.08,60.121 104.354,56.058 104.354,58.812 48.699,58.812 48.699,6.574 51.554,6.574 
			47.34,0.096 43.122,6.574 45.976,6.574 45.976,61.431 104.354,61.431 104.354,64.179 		"/>
		<path fill="#006DF0" d="M53.735,43.759l0.778,0.979 M96.716,20.192c0.708,0.327,1.487,0.524,2.321,0.524
			c2.968,0,5.383-2.325,5.383-5.187c0-2.859-2.415-5.186-5.383-5.186c-2.974,0-5.385,2.327-5.385,5.186
			c0,1.63,0.793,3.072,2.026,4.024 M99.037,12.714c1.609,0,2.922,1.264,2.922,2.815c0,1.555-1.313,2.818-2.922,2.818
			c-1.613,0-2.925-1.264-2.925-2.818C96.112,13.977,97.424,12.714,99.037,12.714z M64.474,51.713
			c0.707,0.327,1.486,0.524,2.321,0.524c2.968,0,5.383-2.325,5.383-5.188c0-2.859-2.415-5.187-5.383-5.187
			c-2.974,0-5.386,2.327-5.386,5.187c0,1.629,0.794,3.072,2.026,4.022 M66.795,44.235c1.607,0,2.922,1.264,2.922,2.816
			c0,1.554-1.314,2.816-2.922,2.816c-1.614,0-2.926-1.263-2.926-2.816C63.869,45.497,65.181,44.235,66.795,44.235z M64.594,31.602
			c0.708,0.328,1.487,0.525,2.321,0.525c2.968,0,5.383-2.326,5.383-5.188c0-2.859-2.415-5.186-5.383-5.186
			c-2.975,0-5.386,2.327-5.386,5.186c0,1.629,0.795,3.073,2.026,4.023 M66.915,24.124c1.608,0,2.921,1.265,2.921,2.816
			c0,1.554-1.313,2.818-2.921,2.818c-1.613,0-2.926-1.264-2.926-2.818S65.302,24.124,66.915,24.124z"/>
	</g>
</g>
<line fill="none" stroke="#424242" stroke-width="4" stroke-miterlimit="10" x1="37.502" y1="55.745" x2="116.502" y2="12.38"/>
</svg>
