<?xml version="1.0" encoding="iso-8859-1"?>
<!-- Generator: Adobe Illustrator 16.0.0, SVG Export Plug-In . SVG Version: 6.00 Build 0)  -->
<!DOCTYPE svg PUBLIC "-//W3C//DTD SVG 1.1//EN" "http://www.w3.org/Graphics/SVG/1.1/DTD/svg11.dtd">
<svg xmlns="http://www.w3.org/2000/svg" xmlns:xlink="http://www.w3.org/1999/xlink" version="1.1" id="Capa_1" x="0px" y="0px" width="512px" height="512px" viewBox="0 0 31.5 31.5" style="enable-background:new 0 0 31.5 31.5;" xml:space="preserve">
<g>
	<g>
		<polygon points="31.5,29.21 28.382,27.257 28.382,28.58 2.584,28.58 2.584,3.453 3.906,3.453 1.953,0.335 0,3.453 1.321,3.453     1.321,29.843 28.382,29.843 28.382,31.165   " fill="#006DF0"/>
		<rect x="4.396" y="10.867" width="4.262" height="16.338" fill="#006DF0"/>
		<rect x="9.841" y="19.232" width="4.263" height="7.973" fill="#006DF0"/>
		<rect x="15.051" y="20.752" width="4.262" height="6.452" fill="#006DF0"/>
		<rect x="20.418" y="15.22" width="4.262" height="11.984" fill="#006DF0"/>
		<polygon points="17.419,19.965 20.607,13.231 21.463,13.677 21.259,11.124 19.052,12.421 20.048,12.939 17.16,19.036     12.788,16.137 7.906,6.15 7.339,6.428 12.295,16.568   " fill="#006DF0"/>
	</g>
</g>
<g>
</g>
<g>
</g>
<g>
</g>
<g>
</g>
<g>
</g>
<g>
</g>
<g>
</g>
<g>
</g>
<g>
</g>
<g>
</g>
<g>
</g>
<g>
</g>
<g>
</g>
<g>
</g>
<g>
</g>
</svg>
