<?xml version="1.0" encoding="iso-8859-1"?>
<!-- Generator: Adobe Illustrator 18.0.0, SVG Export Plug-In . SVG Version: 6.00 Build 0)  -->
<!DOCTYPE svg PUBLIC "-//W3C//DTD SVG 1.1//EN" "http://www.w3.org/Graphics/SVG/1.1/DTD/svg11.dtd">
<svg xmlns="http://www.w3.org/2000/svg" xmlns:xlink="http://www.w3.org/1999/xlink" version="1.1" id="Capa_1" x="0px" y="0px" viewBox="0 0 376 376" style="enable-background:new 0 0 376 376;" xml:space="preserve" width="512px" height="512px">
<g>
	<path d="M366,341H20V25c0-5.523-4.477-10-10-10C4.477,15,0,19.477,0,25v326c0,5.522,4.477,10,10,10h356c5.523,0,10-4.478,10-10   C376,345.477,371.523,341,366,341z" fill="#006DF0"/>
	<path d="M28.758,316.125c0,0.553,0.447,1,1,1h316.484c0.553,0,1-0.447,1-1c0-0.552-0.447-1-1-1h-14.967   c1.043-0.83,1.725-2.096,1.725-3.531v-54.469h13.242c0.553,0,1-0.447,1-1c0-0.552-0.447-1-1-1H333v-17.594   c0-2.502-2.029-4.531-4.531-4.531h-63.438c-2.502,0-4.531,2.029-4.531,4.531v17.594h-36.25v-46.344   c0-2.502-2.029-4.531-4.531-4.531h-63.438c-2.502,0-4.531,2.029-4.531,4.531v46.344H115.5v-58h159.454l4.535,1.264l-6.878,19.218   c-0.602,1.682-0.261,3.557,0.896,4.919c0.959,1.131,2.358,1.766,3.813,1.766c0.297,0,0.597-0.026,0.896-0.081l58.86-10.712   c1.757-0.319,3.21-1.553,3.813-3.234c0.602-1.682,0.261-3.557-0.896-4.919l-6.973-8.22h13.223c0.553,0,1-0.447,1-1   c0-0.552-0.447-1-1-1h-14.92l-30.03-35.4c-1.155-1.362-2.951-2.009-4.707-1.684c-1.758,0.319-3.211,1.553-3.813,3.234   l-6.525,18.233l-111.923-31.172l-14.397-11.211h186.316c0.553,0,1-0.447,1-1c0-0.552-0.447-1-1-1H157.357l-70.07-54.563   c-4.355-3.394-10.642-2.612-14.033,1.746C69.86,86.666,70.643,92.949,75,96.342l49.806,38.783H29.758c-0.553,0-1,0.448-1,1   c0,0.553,0.447,1,1,1h97.616l36.22,28.204c1.028,0.802,2.204,1.394,3.461,1.744l100.719,28.052H115.5v-45.594   c0-2.502-2.029-4.531-4.531-4.531H47.531c-2.502,0-4.531,2.029-4.531,4.531v45.594H29.758c-0.553,0-1,0.448-1,1   c0,0.553,0.447,1,1,1H43v58H29.758c-0.553,0-1,0.448-1,1c0,0.553,0.447,1,1,1H43v54.469c0,1.435,0.682,2.701,1.725,3.531H29.758   C29.205,315.125,28.758,315.573,28.758,316.125z M260.5,257.125v54.469c0,1.435,0.682,2.701,1.725,3.531h-39.699   c1.043-0.83,1.725-2.096,1.725-3.531v-54.469H260.5z M115.5,311.594v-54.469h36.25v54.469c0,1.435,0.682,2.701,1.725,3.531h-39.699   C114.818,314.295,115.5,313.029,115.5,311.594z" fill="#006DF0"/>
	<path d="M29.758,77.125h316.484c0.553,0,1-0.447,1-1c0-0.552-0.447-1-1-1H29.758c-0.553,0-1,0.448-1,1   C28.758,76.678,29.205,77.125,29.758,77.125z" fill="#006DF0"/>
</g>
<g>
</g>
<g>
</g>
<g>
</g>
<g>
</g>
<g>
</g>
<g>
</g>
<g>
</g>
<g>
</g>
<g>
</g>
<g>
</g>
<g>
</g>
<g>
</g>
<g>
</g>
<g>
</g>
<g>
</g>
</svg>
